<mxfile host="app.diagrams.net" modified="2021-01-19T07:54:04.336Z" agent="5.0 (Windows NT 10.0; Win64; x64) AppleWebKit/537.36 (KHTML, like Gecko) Chrome/87.0.4280.141 Safari/537.36" etag="M68PLed0JmStNBXFolUe" version="14.0.5" type="github">
  <diagram id="id88T-LIN462llc5GIbf" name="第 1 页">
    <mxGraphModel dx="923" dy="689" grid="1" gridSize="10" guides="1" tooltips="1" connect="1" arrows="1" fold="1" page="1" pageScale="1" pageWidth="827" pageHeight="1169" math="0" shadow="0">
      <root>
        <mxCell id="0" />
        <mxCell id="1" parent="0" />
        <mxCell id="QWOZkBYGQS6T4wAcZh-h-1" style="edgeStyle=orthogonalEdgeStyle;rounded=0;orthogonalLoop=1;jettySize=auto;html=1;exitX=0.5;exitY=1;exitDx=0;exitDy=0;" edge="1" parent="1" source="QWOZkBYGQS6T4wAcZh-h-2" target="QWOZkBYGQS6T4wAcZh-h-4">
          <mxGeometry relative="1" as="geometry" />
        </mxCell>
        <mxCell id="QWOZkBYGQS6T4wAcZh-h-2" value="开始" style="rounded=1;whiteSpace=wrap;html=1;" vertex="1" parent="1">
          <mxGeometry x="180" y="50" width="100" height="30" as="geometry" />
        </mxCell>
        <mxCell id="QWOZkBYGQS6T4wAcZh-h-3" style="edgeStyle=orthogonalEdgeStyle;rounded=0;orthogonalLoop=1;jettySize=auto;html=1;exitX=0.5;exitY=1;exitDx=0;exitDy=0;entryX=0.5;entryY=0;entryDx=0;entryDy=0;" edge="1" parent="1" source="QWOZkBYGQS6T4wAcZh-h-4" target="QWOZkBYGQS6T4wAcZh-h-6">
          <mxGeometry relative="1" as="geometry" />
        </mxCell>
        <mxCell id="QWOZkBYGQS6T4wAcZh-h-4" value="功能需求策略&lt;font color=&quot;#ff9933&quot;&gt;①&lt;/font&gt;" style="rounded=0;whiteSpace=wrap;html=1;" vertex="1" parent="1">
          <mxGeometry x="170" y="110" width="120" height="30" as="geometry" />
        </mxCell>
        <mxCell id="QWOZkBYGQS6T4wAcZh-h-5" style="edgeStyle=orthogonalEdgeStyle;rounded=0;orthogonalLoop=1;jettySize=auto;html=1;exitX=0.5;exitY=1;exitDx=0;exitDy=0;entryX=0.5;entryY=0;entryDx=0;entryDy=0;" edge="1" parent="1" source="QWOZkBYGQS6T4wAcZh-h-6" target="QWOZkBYGQS6T4wAcZh-h-8">
          <mxGeometry relative="1" as="geometry" />
        </mxCell>
        <mxCell id="QWOZkBYGQS6T4wAcZh-h-6" value="非功能需求策略&lt;font color=&quot;#ff9933&quot;&gt;②&lt;/font&gt;" style="rounded=0;whiteSpace=wrap;html=1;" vertex="1" parent="1">
          <mxGeometry x="170" y="160" width="120" height="30" as="geometry" />
        </mxCell>
        <mxCell id="QWOZkBYGQS6T4wAcZh-h-17" style="edgeStyle=orthogonalEdgeStyle;rounded=0;orthogonalLoop=1;jettySize=auto;html=1;exitX=0.5;exitY=1;exitDx=0;exitDy=0;entryX=0.5;entryY=0;entryDx=0;entryDy=0;" edge="1" parent="1" source="QWOZkBYGQS6T4wAcZh-h-8" target="QWOZkBYGQS6T4wAcZh-h-14">
          <mxGeometry relative="1" as="geometry" />
        </mxCell>
        <mxCell id="QWOZkBYGQS6T4wAcZh-h-8" value="开发策略&lt;font color=&quot;#ff9933&quot;&gt;③&lt;/font&gt;" style="rounded=0;whiteSpace=wrap;html=1;" vertex="1" parent="1">
          <mxGeometry x="170" y="210" width="120" height="30" as="geometry" />
        </mxCell>
        <mxCell id="QWOZkBYGQS6T4wAcZh-h-13" style="edgeStyle=orthogonalEdgeStyle;rounded=0;orthogonalLoop=1;jettySize=auto;html=1;exitX=0.5;exitY=1;exitDx=0;exitDy=0;entryX=0.5;entryY=0;entryDx=0;entryDy=0;" edge="1" parent="1" source="QWOZkBYGQS6T4wAcZh-h-14" target="QWOZkBYGQS6T4wAcZh-h-15">
          <mxGeometry relative="1" as="geometry" />
        </mxCell>
        <mxCell id="QWOZkBYGQS6T4wAcZh-h-14" value="评审&lt;span style=&quot;color: rgb(255 , 153 , 51)&quot;&gt;⑥&lt;/span&gt;" style="rhombus;whiteSpace=wrap;html=1;" vertex="1" parent="1">
          <mxGeometry x="180" y="260" width="100" height="50" as="geometry" />
        </mxCell>
        <mxCell id="QWOZkBYGQS6T4wAcZh-h-15" value="结束" style="rounded=1;whiteSpace=wrap;html=1;" vertex="1" parent="1">
          <mxGeometry x="180" y="350" width="100" height="30" as="geometry" />
        </mxCell>
        <mxCell id="QWOZkBYGQS6T4wAcZh-h-16" value="Y" style="whiteSpace=wrap;html=1;strokeColor=none;" vertex="1" parent="1">
          <mxGeometry x="221.5" y="320" width="17" height="14" as="geometry" />
        </mxCell>
      </root>
    </mxGraphModel>
  </diagram>
</mxfile>
